<?xml version="1.0" standalone="no"?>
<!DOCTYPE svg PUBLIC "-//W3C//DTD SVG 20010904//EN"
 "http://www.w3.org/TR/2001/REC-SVG-20010904/DTD/svg10.dtd">
<svg version="1.0" xmlns="http://www.w3.org/2000/svg"
 width="768.000000pt" height="768.000000pt" viewBox="0 0 768.000000 768.000000"
 preserveAspectRatio="xMidYMid meet">
<metadata>
Created by potrace 1.14, written by Peter Selinger 2001-2017
</metadata>
<g transform="translate(0.000000,768.000000) scale(0.100000,-0.100000)"
fill="#000000" stroke="none">
<path d="M3539 7676 c-2 -2 -42 -7 -89 -10 -47 -3 -94 -8 -105 -10 -11 -2 -45
-7 -76 -10 -31 -4 -67 -9 -80 -11 -13 -3 -41 -7 -64 -10 -22 -4 -57 -11 -78
-16 -20 -5 -42 -7 -47 -4 -6 3 -10 2 -10 -2 0 -5 -8 -9 -17 -10 -10 -1 -56
-11 -103 -23 -47 -12 -92 -23 -100 -25 -8 -2 -15 -4 -15 -5 0 -1 -10 -3 -21
-5 -48 -9 -307 -100 -419 -146 -143 -60 -344 -160 -475 -236 -81 -48 -286
-183 -323 -213 -7 -6 -46 -36 -87 -67 -41 -32 -80 -62 -86 -68 -6 -5 -37 -32
-70 -60 -89 -75 -301 -288 -388 -390 -175 -203 -391 -517 -479 -695 -10 -19
-22 -42 -27 -50 -11 -17 -99 -204 -123 -262 -15 -36 -12 -48 8 -29 9 8 26 18
118 69 138 77 324 98 457 52 36 -13 72 -28 80 -34 8 -7 28 -18 43 -26 42 -21
108 -80 101 -91 -3 -6 -8 -30 -10 -53 -2 -24 -5 -56 -8 -71 -14 -76 -20 -227
-19 -475 0 -224 6 -395 12 -395 1 0 4 -27 6 -60 3 -33 7 -73 9 -90 3 -16 7
-46 10 -65 10 -67 54 -275 64 -301 6 -15 9 -29 6 -32 -2 -2 0 -16 6 -31 5 -15
12 -37 15 -49 2 -12 14 -53 25 -92 11 -38 27 -92 35 -120 17 -60 92 -282 104
-310 5 -11 24 -56 41 -100 38 -95 132 -289 143 -293 4 -2 7 -8 7 -13 0 -20
125 -196 179 -252 59 -62 180 -157 200 -157 6 0 11 -4 11 -9 0 -4 37 -21 83
-36 66 -22 100 -27 172 -26 117 0 153 5 261 36 143 42 267 122 335 217 19 26
37 47 42 48 4 0 7 5 7 11 0 6 16 38 36 72 20 34 36 63 35 65 -1 1 6 19 14 39
20 48 65 221 68 262 1 17 4 31 7 31 3 0 6 8 6 18 1 21 13 128 19 162 4 25 14
124 21 215 2 28 6 253 8 500 4 400 10 656 21 810 15 221 27 338 45 445 10 55
14 75 27 140 4 19 6 38 5 43 -1 4 1 7 5 7 5 0 9 14 10 31 1 17 7 37 13 44 5 6
7 15 3 18 -3 4 0 13 7 22 7 8 10 15 6 15 -6 0 69 216 103 293 11 26 21 49 21
52 1 2 22 42 47 87 26 46 51 93 57 105 6 13 14 23 19 23 4 0 7 7 7 15 0 8 4
15 8 15 5 0 14 10 19 23 19 41 163 216 238 290 79 78 144 137 151 137 2 0 30
19 61 43 76 56 256 162 293 172 3 1 28 12 55 25 28 13 52 25 55 25 3 1 19 7
35 14 46 20 227 82 254 87 13 3 32 9 42 15 10 5 22 8 26 8 4 -1 15 0 23 3 34
12 139 33 220 44 25 3 61 9 80 13 45 10 420 12 420 3 0 -4 17 -7 38 -8 63 -1
113 -8 118 -16 3 -5 10 -6 15 -3 5 3 38 -1 74 -10 36 -10 71 -18 78 -19 7 -2
32 -9 57 -16 56 -17 52 -16 70 -22 47 -18 106 -38 115 -40 32 -7 333 -166 355
-188 3 -3 38 -27 79 -54 40 -27 79 -56 87 -64 8 -7 14 -10 14 -5 0 4 -28 33
-61 63 -34 30 -81 74 -105 97 -24 23 -44 40 -44 38 0 -3 -15 10 -34 28 -19 17
-46 41 -62 52 -31 23 -80 61 -108 87 -11 10 -25 18 -32 18 -7 0 -14 4 -16 8
-4 11 -115 88 -217 152 -90 56 -113 69 -218 126 -37 20 -83 45 -100 56 -18 11
-33 17 -33 13 0 -3 -13 3 -30 15 -16 12 -30 19 -30 16 0 -3 -27 9 -61 25 -34
17 -69 32 -79 34 -10 2 -26 8 -36 13 -25 13 -56 25 -129 52 -33 12 -69 26 -80
30 -63 25 -377 110 -465 125 -14 2 -36 7 -50 9 -13 3 -40 8 -60 11 -20 3 -47
8 -60 10 -33 7 -71 12 -155 21 -38 3 -83 9 -100 11 -38 6 -581 14 -586 9z"/>
<path d="M5318 5315 c-2 -1 -28 -5 -59 -8 -162 -18 -324 -124 -429 -281 -51
-78 -100 -190 -120 -276 -6 -25 -13 -54 -15 -65 -3 -11 -8 -36 -11 -55 -4 -19
-8 -44 -10 -55 -3 -11 -7 -42 -10 -70 -3 -27 -7 -61 -10 -75 -5 -27 -16 -274
-15 -327 1 -18 1 -39 1 -45 0 -7 -2 -137 -4 -288 -4 -284 -13 -580 -21 -685
-3 -33 -8 -100 -11 -150 -3 -49 -8 -110 -10 -135 -2 -25 -6 -67 -9 -95 -2 -27
-6 -66 -9 -85 -2 -19 -7 -60 -10 -90 -3 -30 -13 -95 -22 -145 -9 -49 -18 -101
-20 -115 -2 -14 -11 -52 -19 -85 -9 -33 -18 -69 -20 -79 -5 -23 -24 -86 -32
-106 -4 -8 -7 -18 -8 -22 -2 -5 -3 -9 -5 -10 -1 -2 -3 -10 -5 -18 -4 -19 -46
-130 -74 -193 -11 -26 -21 -51 -23 -55 -4 -13 -93 -172 -110 -196 -127 -185
-217 -284 -398 -440 -28 -25 -188 -136 -195 -136 -2 0 -23 -13 -47 -29 -60
-40 -255 -136 -368 -181 -52 -21 -108 -44 -125 -51 -16 -7 -32 -13 -35 -14 -3
0 -41 -13 -85 -27 -64 -22 -132 -42 -175 -53 -17 -4 -68 -16 -87 -20 -13 -3
-31 -7 -42 -9 -10 -2 -34 -7 -52 -10 -19 -3 -45 -8 -59 -11 -92 -19 -415 -27
-530 -12 -89 11 -134 18 -147 22 -7 3 -13 2 -13 0 0 -6 59 -36 64 -33 2 2 12
-4 22 -13 17 -15 263 -141 289 -148 6 -1 24 -9 40 -16 36 -17 196 -78 210 -81
6 -1 42 -13 80 -27 106 -37 345 -102 413 -113 20 -3 56 -10 80 -15 23 -5 59
-12 80 -14 20 -3 48 -8 61 -11 13 -3 44 -7 70 -10 25 -3 64 -7 86 -10 241 -29
696 -24 925 11 19 3 55 8 80 12 72 9 85 11 85 13 0 1 9 3 20 4 11 2 34 6 50
10 37 8 72 16 105 22 14 3 59 14 100 25 41 11 86 22 99 25 14 3 28 7 33 10 4
3 18 7 30 10 28 6 39 9 58 17 8 3 44 15 80 27 36 11 73 25 82 30 10 6 26 10
36 10 10 0 22 4 28 9 5 5 38 21 74 34 251 94 676 344 914 537 158 128 307 268
445 416 67 72 249 295 279 342 9 15 19 29 22 32 11 11 90 129 90 135 0 3 5 11
10 18 20 22 81 121 103 167 12 25 25 47 28 50 7 5 149 289 147 293 -1 1 6 18
14 37 28 63 53 124 54 130 0 3 4 12 7 20 22 54 65 180 60 180 -3 0 0 7 7 15
25 30 2 25 -91 -19 -92 -44 -250 -101 -306 -110 -249 -44 -442 -13 -603 97
-91 63 -92 64 -84 132 12 105 14 127 21 240 9 142 9 521 -1 605 -10 94 -16
142 -22 170 -3 14 -7 36 -9 50 -3 21 -27 138 -40 190 -2 8 -18 62 -35 120 -17
58 -32 110 -33 115 -2 6 -14 42 -27 80 -13 39 -24 72 -25 75 -2 22 -100 247
-147 340 -63 124 -71 138 -105 187 -13 17 -23 34 -23 37 0 6 -32 45 -58 72 -7
8 -11 14 -9 14 8 0 -63 69 -107 104 -64 52 -155 96 -228 112 -42 9 -176 23
-180 19z"/>
</g>
</svg>
