<svg width="1343" height="457" viewBox="0 0 1343 457" fill="none" xmlns="http://www.w3.org/2000/svg">
<path d="M58.3235 75.9786C-22.2063 165.676 -19.3428 303.746 66.914 390.003C153.171 476.26 291.242 479.124 380.939 398.594L331.399 349.054C269.107 402.343 175.294 399.515 116.348 340.569C57.4026 281.623 54.5742 187.81 107.863 125.518L58.3235 75.9786Z" fill="#26B9E5"/>
<path d="M348.236 332.347C402.37 270.062 399.814 175.594 340.569 116.348C281.323 57.1028 186.855 54.5469 124.57 108.681L75.0508 59.1611C164.721 -22.2251 303.448 -19.6408 390.003 66.914C476.558 153.469 479.142 292.196 397.756 381.866L348.236 332.347Z" fill="#26B9E5"/>
<path d="M107.863 125.518C54.5743 187.81 57.4026 281.623 116.348 340.569C175.294 399.515 269.107 402.343 331.399 349.054L107.863 125.518Z" fill="#ADE8F6"/>
<path d="M581.305 247.371C569.017 247.371 557.668 245.835 547.257 242.763C536.847 239.521 527.801 234.913 520.121 228.939L537.529 205.643C545.209 210.763 552.548 214.603 559.545 217.163C566.713 219.723 573.796 221.003 580.793 221.003C588.644 221.003 594.873 219.723 599.481 217.163C604.26 214.433 606.649 210.934 606.649 206.667C606.649 203.254 605.284 200.523 602.553 198.475C599.993 196.427 595.812 194.977 590.009 194.123L564.409 190.283C551.097 188.235 541.028 183.969 534.201 177.483C527.375 170.827 523.961 162.123 523.961 151.371C523.961 142.667 526.18 135.243 530.617 129.099C535.225 122.785 541.625 117.921 549.817 114.507C558.18 110.923 568.079 109.131 579.513 109.131C589.241 109.131 598.713 110.497 607.929 113.227C617.316 115.958 626.105 120.139 634.297 125.771L617.401 148.555C610.063 143.947 603.065 140.619 596.409 138.571C589.753 136.523 583.012 135.499 576.185 135.499C569.871 135.499 564.751 136.694 560.825 139.083C557.071 141.473 555.193 144.63 555.193 148.555C555.193 152.139 556.559 154.955 559.289 157.003C562.02 159.051 566.713 160.502 573.369 161.355L598.969 165.195C612.111 167.073 622.18 171.339 629.177 177.995C636.175 184.481 639.673 192.929 639.673 203.339C639.673 211.873 637.113 219.467 631.993 226.123C626.873 232.609 619.961 237.814 611.257 241.739C602.553 245.494 592.569 247.371 581.305 247.371Z" fill="black"/>
<path d="M723.665 247.371C710.353 247.371 698.236 244.299 687.313 238.155C676.561 232.011 668.028 223.734 661.713 213.323C655.399 202.913 652.241 191.222 652.241 178.251C652.241 165.281 655.228 153.59 661.201 143.179C667.345 132.769 675.623 124.491 686.033 118.347C696.444 112.203 708.049 109.131 720.849 109.131C733.649 109.131 744.999 112.289 754.897 118.603C764.796 124.918 772.561 133.451 778.193 144.203C783.996 154.955 786.897 167.158 786.897 180.811V190.027H688.081C689.617 195.318 692.092 200.097 695.505 204.363C699.089 208.63 703.441 211.958 708.561 214.347C713.852 216.737 719.484 217.931 725.457 217.931C731.431 217.931 736.892 216.993 741.841 215.115C746.961 213.238 751.313 210.593 754.897 207.179L777.937 228.171C769.745 234.827 761.297 239.691 752.593 242.763C744.06 245.835 734.417 247.371 723.665 247.371ZM687.569 164.939H752.337C751.143 159.649 748.924 155.041 745.681 151.115C742.609 147.019 738.855 143.862 734.417 141.643C730.151 139.254 725.372 138.059 720.081 138.059C714.62 138.059 709.671 139.169 705.233 141.387C700.967 143.606 697.297 146.763 694.225 150.859C691.153 154.785 688.935 159.478 687.569 164.939Z" fill="black"/>
<path d="M808.385 244.811V111.435H843.457V122.443C853.527 113.398 865.985 108.875 880.833 108.875C891.244 108.875 900.375 111.179 908.225 115.787C916.247 120.225 922.476 126.454 926.913 134.475C931.351 142.326 933.569 151.542 933.569 162.123V244.811H898.497V167.243C898.497 158.539 896.023 151.713 891.073 146.763C886.124 141.643 879.383 139.083 870.849 139.083C864.876 139.083 859.585 140.278 854.977 142.667C850.369 144.886 846.529 148.129 843.457 152.395V244.811H808.385Z" fill="black"/>
<path d="M1019.62 246.859C1004.77 246.859 993.505 243.531 985.825 236.875C978.316 230.049 974.561 220.15 974.561 207.179V140.619H947.169V111.435H974.561V77.3872L1009.63 69.4512V111.435H1047.78V140.619H1009.63V200.011C1009.63 206.155 1011 210.593 1013.73 213.323C1016.46 215.883 1021.24 217.163 1028.07 217.163C1031.48 217.163 1034.55 216.993 1037.28 216.651C1040.18 216.139 1043.34 215.286 1046.75 214.091V243.019C1043.17 244.214 1038.73 245.153 1033.44 245.835C1028.15 246.518 1023.54 246.859 1019.62 246.859Z" fill="black"/>
<path d="M1064.89 244.811V111.435H1099.96V126.283C1104.22 120.481 1109.34 116.043 1115.32 112.971C1121.29 109.899 1128.03 108.363 1135.54 108.363C1142.03 108.534 1146.89 109.558 1150.13 111.435V142.155C1147.57 140.961 1144.76 140.107 1141.69 139.595C1138.61 138.913 1135.46 138.571 1132.21 138.571C1125.39 138.571 1119.16 140.278 1113.53 143.691C1107.89 147.105 1103.37 151.969 1099.96 158.283V244.811H1064.89Z" fill="black"/>
<path d="M1208.13 247.115C1198.57 247.115 1190.13 245.409 1182.79 241.995C1175.45 238.411 1169.73 233.547 1165.64 227.403C1161.54 221.259 1159.49 214.177 1159.49 206.155C1159.49 193.355 1164.27 183.457 1173.83 176.459C1183.56 169.291 1196.87 165.707 1213.76 165.707C1225.37 165.707 1236.29 167.499 1246.53 171.083V161.355C1246.53 153.675 1244.14 147.873 1239.36 143.947C1234.58 140.022 1227.59 138.059 1218.37 138.059C1212.74 138.059 1206.68 138.998 1200.2 140.875C1193.71 142.582 1186.2 145.313 1177.67 149.067L1164.87 123.211C1175.45 118.433 1185.52 114.849 1195.08 112.459C1204.8 110.07 1214.53 108.875 1224.26 108.875C1242.18 108.875 1256.09 113.227 1265.99 121.931C1276.06 130.465 1281.09 142.582 1281.09 158.283V244.811H1246.53V235.339C1241.07 239.435 1235.18 242.422 1228.87 244.299C1222.55 246.177 1215.64 247.115 1208.13 247.115ZM1192.77 205.387C1192.77 210.507 1194.99 214.603 1199.43 217.675C1203.86 220.577 1209.75 222.027 1217.09 222.027C1222.89 222.027 1228.27 221.345 1233.22 219.979C1238.17 218.443 1242.61 216.225 1246.53 213.323V193.867C1242.26 192.161 1237.83 190.881 1233.22 190.027C1228.61 189.174 1223.66 188.747 1218.37 188.747C1210.35 188.747 1204.04 190.283 1199.43 193.355C1194.99 196.257 1192.77 200.267 1192.77 205.387Z" fill="black"/>
<path d="M1307.64 244.811V65.6112L1342.71 59.7232V244.811H1307.64Z" fill="black"/>
<path d="M524.473 368.811V279.211L542.009 276.267V307.499C547.3 303.318 553.529 301.227 560.697 301.227C567.012 301.227 572.729 302.763 577.849 305.835C582.969 308.907 587.023 313.046 590.009 318.251C593.081 323.371 594.617 329.131 594.617 335.531C594.617 341.931 593.081 347.734 590.009 352.939C586.937 358.059 582.799 362.155 577.593 365.227C572.388 368.214 566.585 369.707 560.185 369.707C556.857 369.707 553.615 369.238 550.457 368.299C547.3 367.361 544.399 365.995 541.753 364.203V368.811H524.473ZM557.881 354.859C561.551 354.859 564.836 354.006 567.737 352.299C570.724 350.593 573.071 348.289 574.777 345.387C576.484 342.486 577.337 339.201 577.337 335.531C577.337 331.862 576.484 328.577 574.777 325.675C573.071 322.689 570.724 320.385 567.737 318.763C564.836 317.057 561.551 316.203 557.881 316.203C554.639 316.203 551.652 316.758 548.921 317.867C546.276 318.891 543.972 320.47 542.009 322.603V348.587C543.887 350.465 546.191 352.001 548.921 353.195C551.737 354.305 554.724 354.859 557.881 354.859Z" fill="black"/>
<path d="M605.348 368.811V302.123H622.884V368.811H605.348ZM614.052 294.187C611.322 294.187 608.975 293.206 607.012 291.243C605.05 289.281 604.068 286.934 604.068 284.203C604.068 281.387 605.05 279.041 607.012 277.163C608.975 275.201 611.322 274.219 614.052 274.219C616.868 274.219 619.215 275.201 621.092 277.163C623.055 279.041 624.036 281.387 624.036 284.203C624.036 286.934 623.055 289.281 621.092 291.243C619.215 293.206 616.868 294.187 614.052 294.187Z" fill="black"/>
<path d="M661.558 370.091C655.414 370.091 649.74 369.323 644.534 367.787C639.329 366.166 634.806 363.862 630.966 360.875L639.67 349.227C643.51 351.787 647.18 353.707 650.678 354.987C654.262 356.267 657.804 356.907 661.302 356.907C665.228 356.907 668.342 356.267 670.646 354.987C673.036 353.622 674.23 351.873 674.23 349.739C674.23 348.033 673.548 346.667 672.182 345.643C670.902 344.619 668.812 343.894 665.91 343.467L653.11 341.547C646.454 340.523 641.42 338.39 638.006 335.147C634.593 331.819 632.886 327.467 632.886 322.091C632.886 317.739 633.996 314.027 636.214 310.955C638.518 307.798 641.718 305.366 645.814 303.659C649.996 301.867 654.945 300.971 660.662 300.971C665.526 300.971 670.262 301.654 674.87 303.019C679.564 304.385 683.958 306.475 688.054 309.291L679.606 320.683C675.937 318.379 672.438 316.715 669.11 315.691C665.782 314.667 662.412 314.155 658.998 314.155C655.841 314.155 653.281 314.753 651.318 315.947C649.441 317.142 648.502 318.721 648.502 320.683C648.502 322.475 649.185 323.883 650.55 324.907C651.916 325.931 654.262 326.657 657.59 327.083L670.39 329.003C676.961 329.942 681.996 332.075 685.494 335.403C688.993 338.646 690.742 342.87 690.742 348.075C690.742 352.342 689.462 356.139 686.902 359.467C684.342 362.71 680.886 365.313 676.534 367.275C672.182 369.153 667.19 370.091 661.558 370.091Z" fill="black"/>
<path d="M699.473 368.811V302.123H717.009V307.627C722.044 303.105 728.273 300.843 735.697 300.843C740.903 300.843 745.468 301.995 749.393 304.299C753.404 306.518 756.519 309.633 758.737 313.643C760.956 317.569 762.065 322.177 762.065 327.467V368.811H744.529V330.027C744.529 325.675 743.292 322.262 740.817 319.787C738.343 317.227 734.972 315.947 730.705 315.947C727.719 315.947 725.073 316.545 722.769 317.739C720.465 318.849 718.545 320.47 717.009 322.603V368.811H699.473Z" fill="black"/>
<path d="M775.348 368.811V302.123H792.884V368.811H775.348ZM784.052 294.187C781.322 294.187 778.975 293.206 777.012 291.243C775.05 289.281 774.068 286.934 774.068 284.203C774.068 281.387 775.05 279.041 777.012 277.163C778.975 275.201 781.322 274.219 784.052 274.219C786.868 274.219 789.215 275.201 791.092 277.163C793.055 279.041 794.036 281.387 794.036 284.203C794.036 286.934 793.055 289.281 791.092 291.243C789.215 293.206 786.868 294.187 784.052 294.187Z" fill="black"/>
<path d="M831.558 370.091C825.414 370.091 819.74 369.323 814.534 367.787C809.329 366.166 804.806 363.862 800.966 360.875L809.67 349.227C813.51 351.787 817.18 353.707 820.678 354.987C824.262 356.267 827.804 356.907 831.302 356.907C835.228 356.907 838.342 356.267 840.646 354.987C843.036 353.622 844.23 351.873 844.23 349.739C844.23 348.033 843.548 346.667 842.182 345.643C840.902 344.619 838.812 343.894 835.91 343.467L823.11 341.547C816.454 340.523 811.42 338.39 808.006 335.147C804.593 331.819 802.886 327.467 802.886 322.091C802.886 317.739 803.996 314.027 806.214 310.955C808.518 307.798 811.718 305.366 815.814 303.659C819.996 301.867 824.945 300.971 830.662 300.971C835.526 300.971 840.262 301.654 844.87 303.019C849.564 304.385 853.958 306.475 858.054 309.291L849.606 320.683C845.937 318.379 842.438 316.715 839.11 315.691C835.782 314.667 832.412 314.155 828.998 314.155C825.841 314.155 823.281 314.753 821.318 315.947C819.441 317.142 818.502 318.721 818.502 320.683C818.502 322.475 819.185 323.883 820.55 324.907C821.916 325.931 824.262 326.657 827.59 327.083L840.39 329.003C846.961 329.942 851.996 332.075 855.494 335.403C858.993 338.646 860.742 342.87 860.742 348.075C860.742 352.342 859.462 356.139 856.902 359.467C854.342 362.71 850.886 365.313 846.534 367.275C842.182 369.153 837.19 370.091 831.558 370.091Z" fill="black"/>
<path d="M926.071 369.707C919.757 369.707 914.039 368.171 908.919 365.099C903.799 362.027 899.703 357.931 896.631 352.811C893.645 347.606 892.151 341.803 892.151 335.403C892.151 329.003 893.645 323.243 896.631 318.123C899.703 312.918 903.842 308.822 909.047 305.835C914.253 302.763 920.098 301.227 926.583 301.227C929.911 301.227 933.111 301.697 936.183 302.635C939.255 303.489 942.114 304.769 944.759 306.475V279.211L962.295 276.267V368.811H945.015V363.307C939.554 367.574 933.239 369.707 926.071 369.707ZM928.887 354.731C932.13 354.731 935.074 354.177 937.719 353.067C940.45 351.958 942.797 350.379 944.759 348.331V322.347C942.797 320.385 940.45 318.849 937.719 317.739C934.989 316.63 932.045 316.075 928.887 316.075C925.218 316.075 921.89 316.929 918.903 318.635C916.002 320.257 913.698 322.561 911.991 325.547C910.285 328.449 909.431 331.734 909.431 335.403C909.431 339.073 910.285 342.358 911.991 345.259C913.698 348.161 916.002 350.465 918.903 352.171C921.89 353.878 925.218 354.731 928.887 354.731Z" fill="black"/>
<path d="M976.098 368.811V302.123H993.634V368.811H976.098ZM984.802 294.187C982.072 294.187 979.725 293.206 977.762 291.243C975.8 289.281 974.818 286.934 974.818 284.203C974.818 281.387 975.8 279.041 977.762 277.163C979.725 275.201 982.072 274.219 984.802 274.219C987.618 274.219 989.965 275.201 991.842 277.163C993.805 279.041 994.786 281.387 994.786 284.203C994.786 286.934 993.805 289.281 991.842 291.243C989.965 293.206 987.618 294.187 984.802 294.187Z" fill="black"/>
<path d="M1040.88 396.203C1035.76 396.203 1030.82 395.649 1026.04 394.539C1021.26 393.515 1016.95 392.022 1013.11 390.059L1019.25 376.491C1022.92 378.283 1026.51 379.606 1030 380.459C1033.5 381.313 1037 381.739 1040.5 381.739C1045.71 381.739 1049.63 380.63 1052.28 378.411C1055.01 376.193 1056.37 372.865 1056.37 368.427V363.179C1050.91 367.19 1044.81 369.195 1038.07 369.195C1031.75 369.195 1026.04 367.702 1020.92 364.715C1015.88 361.643 1011.83 357.505 1008.76 352.299C1005.77 347.094 1004.28 341.334 1004.28 335.019C1004.28 328.705 1005.77 322.987 1008.76 317.867C1011.83 312.747 1015.97 308.694 1021.17 305.707C1026.38 302.635 1032.18 301.099 1038.58 301.099C1041.82 301.099 1044.98 301.569 1048.05 302.507C1051.12 303.446 1053.98 304.769 1056.63 306.475V302.123H1073.91V368.683C1073.91 377.473 1071.05 384.257 1065.33 389.035C1059.7 393.814 1051.55 396.203 1040.88 396.203ZM1040.76 354.347C1044 354.347 1046.94 353.835 1049.59 352.811C1052.23 351.702 1054.49 350.166 1056.37 348.203V322.091C1054.49 320.214 1052.19 318.763 1049.46 317.739C1046.82 316.63 1043.96 316.075 1040.88 316.075C1037.22 316.075 1033.93 316.929 1031.03 318.635C1028.13 320.257 1025.82 322.518 1024.12 325.419C1022.41 328.235 1021.56 331.435 1021.56 335.019C1021.56 338.689 1022.37 341.974 1023.99 344.875C1025.7 347.777 1028 350.081 1030.9 351.787C1033.89 353.494 1037.17 354.347 1040.76 354.347Z" fill="black"/>
<path d="M1087.72 368.811V302.123H1105.26V368.811H1087.72ZM1096.43 294.187C1093.7 294.187 1091.35 293.206 1089.39 291.243C1087.42 289.281 1086.44 286.934 1086.44 284.203C1086.44 281.387 1087.42 279.041 1089.39 277.163C1091.35 275.201 1093.7 274.219 1096.43 274.219C1099.24 274.219 1101.59 275.201 1103.47 277.163C1105.43 279.041 1106.41 281.387 1106.41 284.203C1106.41 286.934 1105.43 289.281 1103.47 291.243C1101.59 293.206 1099.24 294.187 1096.43 294.187Z" fill="black"/>
<path d="M1150.59 369.835C1143.17 369.835 1137.53 368.171 1133.69 364.843C1129.94 361.43 1128.06 356.481 1128.06 349.995V316.715H1114.37V302.123H1128.06V285.099L1145.6 281.131V302.123H1164.67V316.715H1145.6V346.411C1145.6 349.483 1146.28 351.702 1147.65 353.067C1149.01 354.347 1151.4 354.987 1154.81 354.987C1156.52 354.987 1158.06 354.902 1159.42 354.731C1160.87 354.475 1162.45 354.049 1164.16 353.451V367.915C1162.37 368.513 1160.15 368.982 1157.5 369.323C1154.86 369.665 1152.55 369.835 1150.59 369.835Z" fill="black"/>
<path d="M1194.47 369.963C1189.69 369.963 1185.47 369.11 1181.8 367.403C1178.13 365.611 1175.27 363.179 1173.22 360.107C1171.18 357.035 1170.15 353.494 1170.15 349.483C1170.15 343.083 1172.54 338.134 1177.32 334.635C1182.18 331.051 1188.84 329.259 1197.29 329.259C1203.09 329.259 1208.55 330.155 1213.67 331.947V327.083C1213.67 323.243 1212.48 320.342 1210.09 318.379C1207.7 316.417 1204.2 315.435 1199.59 315.435C1196.78 315.435 1193.75 315.905 1190.5 316.843C1187.26 317.697 1183.51 319.062 1179.24 320.939L1172.84 308.011C1178.13 305.622 1183.16 303.83 1187.94 302.635C1192.81 301.441 1197.67 300.843 1202.54 300.843C1211.5 300.843 1218.45 303.019 1223.4 307.371C1228.43 311.638 1230.95 317.697 1230.95 325.547V368.811H1213.67V364.075C1210.94 366.123 1208 367.617 1204.84 368.555C1201.68 369.494 1198.23 369.963 1194.47 369.963ZM1186.79 349.099C1186.79 351.659 1187.9 353.707 1190.12 355.243C1192.34 356.694 1195.28 357.419 1198.95 357.419C1201.85 357.419 1204.54 357.078 1207.02 356.395C1209.49 355.627 1211.71 354.518 1213.67 353.067V343.339C1211.54 342.486 1209.32 341.846 1207.02 341.419C1204.71 340.993 1202.24 340.779 1199.59 340.779C1195.58 340.779 1192.42 341.547 1190.12 343.083C1187.9 344.534 1186.79 346.539 1186.79 349.099Z" fill="black"/>
<path d="M1244.22 368.811V279.211L1261.76 276.267V368.811H1244.22Z" fill="black"/>
</svg>
